<svg width="20" height="10" viewBox="0 0 20 10" fill="none" xmlns="http://www.w3.org/2000/svg">
<path d="M13 8.25C12.5858 8.25 12.25 8.58579 12.25 9C12.25 9.41421 12.5858 9.75 13 9.75V8.25ZM13 0.25C12.5858 0.25 12.25 0.585786 12.25 1C12.25 1.41421 12.5858 1.75 13 1.75V0.25ZM6 4.25C5.58579 4.25 5.25 4.58579 5.25 5C5.25 5.41421 5.58579 5.75 6 5.75V4.25ZM14 5.75C14.4142 5.75 14.75 5.41421 14.75 5C14.75 4.58579 14.4142 4.25 14 4.25V5.75ZM7 1.75C7.41421 1.75 7.75 1.41421 7.75 1C7.75 0.585786 7.41421 0.25 7 0.25V1.75ZM7 9.75C7.41421 9.75 7.75 9.41421 7.75 9C7.75 8.58579 7.41421 8.25 7 8.25V9.75ZM15 1.75C16.7949 1.75 18.25 3.20507 18.25 5H19.75C19.75 2.37665 17.6234 0.25 15 0.25V1.75ZM18.25 5C18.25 6.79493 16.7949 8.25 15 8.25V9.75C17.6234 9.75 19.75 7.62335 19.75 5H18.25ZM15 8.25H13V9.75H15V8.25ZM15 0.25H13V1.75H15V0.25ZM6 5.75H14V4.25H6V5.75ZM5 8.25C3.20507 8.25 1.75 6.79493 1.75 5H0.25C0.25 7.62335 2.37665 9.75 5 9.75V8.25ZM1.75 5C1.75 3.20507 3.20507 1.75 5 1.75V0.25C2.37665 0.25 0.25 2.37665 0.25 5H1.75ZM5 1.75H7V0.25H5V1.75ZM5 9.75H7V8.25H5V9.75Z" fill="#656D72"/>
</svg>
