<svg width="12" height="20" viewBox="0 0 12 20" fill="none" xmlns="http://www.w3.org/2000/svg">
<path d="M5.25 19C5.25 19.4142 5.58579 19.75 6 19.75C6.41421 19.75 6.75 19.4142 6.75 19H5.25ZM5.25 11V19H6.75V11H5.25ZM10.25 6C10.25 8.34721 8.34721 10.25 6 10.25V11.75C9.17564 11.75 11.75 9.17564 11.75 6H10.25ZM6 10.25C3.65279 10.25 1.75 8.34721 1.75 6H0.25C0.25 9.17564 2.82436 11.75 6 11.75V10.25ZM1.75 6C1.75 3.65279 3.65279 1.75 6 1.75V0.25C2.82436 0.25 0.25 2.82436 0.25 6H1.75ZM6 1.75C8.34721 1.75 10.25 3.65279 10.25 6H11.75C11.75 2.82436 9.17564 0.25 6 0.25V1.75Z" fill="#7E74F1"/>
</svg>
