<svg width="19" height="16" viewBox="0 0 19 16" fill="none" xmlns="http://www.w3.org/2000/svg">
<path d="M1.5 1L2.03033 0.46967C1.81583 0.255171 1.49324 0.191005 1.21299 0.30709C0.932732 0.423176 0.75 0.696653 0.75 1L1.5 1ZM1.5 12H0.75C0.75 12.4142 1.08579 12.75 1.5 12.75L1.5 12ZM17.5 12V12.75C17.9142 12.75 18.25 12.4142 18.25 12H17.5ZM17.5 1H18.25C18.25 0.696653 18.0673 0.423176 17.787 0.30709C17.5068 0.191005 17.1842 0.255171 16.9697 0.46967L17.5 1ZM13.5 5L12.9697 5.53033C13.2626 5.82322 13.7374 5.82322 14.0303 5.53033L13.5 5ZM5.5 5L4.96967 5.53033C5.26256 5.82322 5.73744 5.82322 6.03033 5.53033L5.5 5ZM9.5 1L10.0303 0.46967C9.73744 0.176777 9.26256 0.176777 8.96967 0.46967L9.5 1ZM1.5 14.25C1.08579 14.25 0.75 14.5858 0.75 15C0.75 15.4142 1.08579 15.75 1.5 15.75V14.25ZM17.5 15.75C17.9142 15.75 18.25 15.4142 18.25 15C18.25 14.5858 17.9142 14.25 17.5 14.25V15.75ZM0.75 1V12H2.25V1H0.75ZM1.5 12.75H17.5V11.25H1.5V12.75ZM18.25 12V1H16.75V12H18.25ZM16.9697 0.46967L12.9697 4.46967L14.0303 5.53033L18.0303 1.53033L16.9697 0.46967ZM0.96967 1.53033L4.96967 5.53033L6.03033 4.46967L2.03033 0.46967L0.96967 1.53033ZM6.03033 5.53033L10.0303 1.53033L8.96967 0.46967L4.96967 4.46967L6.03033 5.53033ZM8.96967 1.53033L12.9697 5.53033L14.0303 4.46967L10.0303 0.46967L8.96967 1.53033ZM1.5 15.75H17.5V14.25H1.5V15.75Z" fill="#7E74F1"/>
</svg>
